<?xml version="1.0" encoding="UTF-8" standalone="no"?>
<!DOCTYPE svg PUBLIC "-//W3C//DTD SVG 1.1//EN"
 "http://www.w3.org/Graphics/SVG/1.1/DTD/svg11.dtd">
<!-- Generated by graphviz version 2.43.0 (0)
 -->
<!-- Title: SchemeExecutionPlan Pages: 1 -->
<svg width="134pt" height="197pt"
 viewBox="0.00 0.00 134.00 197.00" xmlns="http://www.w3.org/2000/svg" xmlns:xlink="http://www.w3.org/1999/xlink">
<g id="graph0" class="graph" transform="scale(1 1) rotate(0) translate(4 193)">
<title>SchemeExecutionPlan</title>
<polygon fill="white" stroke="transparent" points="-4,4 -4,-193 130,-193 130,4 -4,4"/>
<!-- n0 -->
<g id="node1" class="node">
<title>n0</title>
<path fill="lightcyan" stroke="black" d="M48,-150.5C48,-150.5 78,-150.5 78,-150.5 84,-150.5 90,-156.5 90,-162.5 90,-162.5 90,-176.5 90,-176.5 90,-182.5 84,-188.5 78,-188.5 78,-188.5 48,-188.5 48,-188.5 42,-188.5 36,-182.5 36,-176.5 36,-176.5 36,-162.5 36,-162.5 36,-156.5 42,-150.5 48,-150.5"/>
<text text-anchor="middle" x="63" y="-173.3" font-family="Times,serif" font-size="14.00">then</text>
<text text-anchor="middle" x="63" y="-158.3" font-family="Times,serif" font-size="14.00">[]</text>
</g>
<!-- n1 -->
<g id="node2" class="node">
<title>n1</title>
<path fill="lightcyan" stroke="black" d="M35.5,-75.5C35.5,-75.5 90.5,-75.5 90.5,-75.5 96.5,-75.5 102.5,-81.5 102.5,-87.5 102.5,-87.5 102.5,-101.5 102.5,-101.5 102.5,-107.5 96.5,-113.5 90.5,-113.5 90.5,-113.5 35.5,-113.5 35.5,-113.5 29.5,-113.5 23.5,-107.5 23.5,-101.5 23.5,-101.5 23.5,-87.5 23.5,-87.5 23.5,-81.5 29.5,-75.5 35.5,-75.5"/>
<text text-anchor="middle" x="63" y="-98.3" font-family="Times,serif" font-size="14.00">when_all</text>
<text text-anchor="middle" x="63" y="-83.3" font-family="Times,serif" font-size="14.00">[]</text>
</g>
<!-- n0&#45;&gt;n1 -->
<g id="edge1" class="edge">
<title>n0&#45;&gt;n1</title>
<path fill="none" stroke="black" d="M63,-150.46C63,-142.38 63,-132.68 63,-123.68"/>
<polygon fill="black" stroke="black" points="66.5,-123.59 63,-113.59 59.5,-123.59 66.5,-123.59"/>
</g>
<!-- n2 -->
<g id="node3" class="node">
<title>n2</title>
<path fill="lightcyan" stroke="black" d="M12,-0.5C12,-0.5 42,-0.5 42,-0.5 48,-0.5 54,-6.5 54,-12.5 54,-12.5 54,-26.5 54,-26.5 54,-32.5 48,-38.5 42,-38.5 42,-38.5 12,-38.5 12,-38.5 6,-38.5 0,-32.5 0,-26.5 0,-26.5 0,-12.5 0,-12.5 0,-6.5 6,-0.5 12,-0.5"/>
<text text-anchor="middle" x="27" y="-23.3" font-family="Times,serif" font-size="14.00">just</text>
<text text-anchor="middle" x="27" y="-8.3" font-family="Times,serif" font-size="14.00">[]</text>
</g>
<!-- n1&#45;&gt;n2 -->
<g id="edge2" class="edge">
<title>n1&#45;&gt;n2</title>
<path fill="none" stroke="black" d="M54.1,-75.46C49.99,-67.12 45.02,-57.04 40.47,-47.8"/>
<polygon fill="black" stroke="black" points="43.48,-46.01 35.92,-38.59 37.21,-49.11 43.48,-46.01"/>
</g>
<!-- n3 -->
<g id="node4" class="node">
<title>n3</title>
<path fill="lightcyan" stroke="black" d="M84,-0.5C84,-0.5 114,-0.5 114,-0.5 120,-0.5 126,-6.5 126,-12.5 126,-12.5 126,-26.5 126,-26.5 126,-32.5 120,-38.5 114,-38.5 114,-38.5 84,-38.5 84,-38.5 78,-38.5 72,-32.5 72,-26.5 72,-26.5 72,-12.5 72,-12.5 72,-6.5 78,-0.5 84,-0.5"/>
<text text-anchor="middle" x="99" y="-23.3" font-family="Times,serif" font-size="14.00">just</text>
<text text-anchor="middle" x="99" y="-8.3" font-family="Times,serif" font-size="14.00">[]</text>
</g>
<!-- n1&#45;&gt;n3 -->
<g id="edge3" class="edge">
<title>n1&#45;&gt;n3</title>
<path fill="none" stroke="black" d="M71.9,-75.46C76.01,-67.12 80.98,-57.04 85.53,-47.8"/>
<polygon fill="black" stroke="black" points="88.79,-49.11 90.08,-38.59 82.52,-46.01 88.79,-49.11"/>
</g>
</g>
</svg>
